<svg xmlns="http://www.w3.org/2000/svg" xmlns:xlink="http://www.w3.org/1999/xlink" width="500" zoomAndPan="magnify" viewBox="0 0 375 374.999991" height="500" preserveAspectRatio="xMidYMid meet" version="1.0"><defs><clipPath id="156e270c3f"><path d="M 90 198 L 226 198 L 226 327.625 L 90 327.625 Z M 90 198 " clip-rule="nonzero"/></clipPath><clipPath id="a2f601f665"><path d="M 217 91 L 327.625 91 L 327.625 211 L 217 211 Z M 217 91 " clip-rule="nonzero"/></clipPath><clipPath id="ec4295b617"><path d="M 157 47.125 L 279 47.125 L 279 174 L 157 174 Z M 157 47.125 " clip-rule="nonzero"/></clipPath><clipPath id="d28db6261d"><path d="M 47.125 163 L 157 163 L 157 279 L 47.125 279 Z M 47.125 163 " clip-rule="nonzero"/></clipPath></defs><rect x="-37.5" width="450" fill="#ffffff" y="-37.499999" height="449.999989" fill-opacity="1"/><rect x="-37.5" width="450" fill="#ffffff" y="-37.499999" height="449.999989" fill-opacity="1"/><rect x="-37.5" width="450" fill="#000000" y="-37.499999" height="449.999989" fill-opacity="1"/><g clip-path="url(#156e270c3f)"><path fill="#6c5dd2" d="M 148.816406 200.636719 L 133.1875 224.308594 C 119.046875 245.925781 104.886719 267.417969 90.707031 288.773438 C 93.171875 290.65625 95.441406 292.535156 97.644531 294.351562 C 102.378906 298.113281 107.246094 302.070312 112.304688 305.441406 C 121.085938 311.152344 130.40625 315.769531 140.269531 319.296875 C 150.128906 322.824219 160.265625 325.167969 170.671875 326.328125 C 185.015625 328.0625 199.285156 327.585938 213.476562 324.898438 C 217.109375 324.25 220.675781 323.277344 224.308594 322.304688 L 225.347656 322.304688 L 150.242188 198.496094 Z M 148.816406 200.636719 " fill-opacity="1" fill-rule="nonzero"/></g><path fill="#6c5dd2" d="M 143.886719 53.867188 C 136.101562 56.480469 128.589844 59.734375 121.359375 63.632812 C 114.128906 67.527344 107.285156 72.015625 100.824219 77.085938 C 96.136719 80.742188 91.699219 84.679688 87.515625 88.902344 C 83.332031 93.125 79.433594 97.597656 75.820312 102.320312 C 72.210938 107.039062 68.914062 111.972656 65.9375 117.117188 C 62.957031 122.261719 60.316406 127.574219 58.019531 133.058594 C 56.203125 137.53125 54.648438 142.070312 53.027344 146.871094 C 53.027344 147.714844 52.507812 148.558594 52.183594 149.402344 L 194.863281 149.402344 L 174.175781 110.488281 C 164.015625 91.851562 153.917969 72.980469 143.886719 53.867188 Z M 143.886719 53.867188 " fill-opacity="1" fill-rule="nonzero"/><g clip-path="url(#a2f601f665)"><path fill="#6c5dd2" d="M 217.695312 210.820312 L 325.417969 210.820312 C 326.355469 205.5 326.976562 200.140625 327.28125 194.746094 C 327.589844 189.355469 327.578125 183.960938 327.25 178.570312 C 326.925781 173.175781 326.28125 167.824219 325.324219 162.503906 C 324.371094 157.1875 323.105469 151.945312 321.535156 146.777344 C 319.960938 141.609375 318.09375 136.550781 315.925781 131.601562 C 313.757812 126.652344 311.308594 121.847656 308.578125 117.1875 C 305.847656 112.527344 302.855469 108.039062 299.597656 103.730469 C 296.339844 99.421875 292.839844 95.316406 289.097656 91.421875 Z M 217.695312 210.820312 " fill-opacity="1" fill-rule="nonzero"/></g><path fill="#6c5dd2" d="M 298.179688 273.144531 C 303.761719 266.050781 308.589844 258.476562 312.664062 250.421875 C 316.734375 242.363281 319.96875 233.984375 322.371094 225.28125 L 183.320312 225.28125 L 239.097656 317.441406 C 244.894531 315.144531 250.515625 312.476562 255.957031 309.429688 C 261.398438 306.382812 266.613281 302.992188 271.605469 299.25 C 276.59375 295.511719 281.3125 291.453125 285.761719 287.082031 C 290.210938 282.714844 294.351562 278.066406 298.179688 273.144531 Z M 298.179688 273.144531 " fill-opacity="1" fill-rule="nonzero"/><g clip-path="url(#ec4295b617)"><path fill="#6c5dd2" d="M 223.660156 173.332031 L 278.59375 81.367188 C 274.519531 77.847656 270.257812 74.574219 265.804688 71.550781 C 261.351562 68.523438 256.738281 65.765625 251.96875 63.273438 C 247.195312 60.78125 242.296875 58.570312 237.269531 56.644531 C 232.242188 54.722656 227.121094 53.09375 221.90625 51.761719 C 216.6875 50.429688 211.414062 49.402344 206.078125 48.679688 C 200.742188 47.960938 195.386719 47.546875 190.003906 47.445312 C 184.621094 47.347656 179.25 47.554688 173.890625 48.078125 C 168.535156 48.597656 163.222656 49.425781 157.960938 50.5625 Z M 223.660156 173.332031 " fill-opacity="1" fill-rule="nonzero"/></g><g clip-path="url(#d28db6261d)"><path fill="#6c5dd2" d="M 49.132812 163.539062 C 49.132812 165.289062 48.679688 166.847656 48.484375 168.46875 C 48.03125 171.644531 47.578125 174.953125 47.382812 178.003906 C 46.976562 184.003906 46.957031 190.003906 47.324219 196.003906 C 47.695312 202.007812 48.449219 207.960938 49.585938 213.867188 C 50.722656 219.773438 52.238281 225.578125 54.128906 231.289062 C 56.015625 237 58.265625 242.5625 60.875 247.980469 C 66.152344 258.949219 72.789062 269.023438 80.785156 278.203125 L 156.40625 163.605469 L 49.132812 163.605469 Z M 49.132812 163.539062 " fill-opacity="1" fill-rule="nonzero"/></g></svg>